<?xml version="1.0" encoding="UTF-8"?> <svg xmlns="http://www.w3.org/2000/svg" viewBox="0 0 223 182" width="223" height="182"><style> tspan { white-space:pre } .shp0 { fill: #f2f2f2 } .shp1 { fill: #cccccc } .shp2 { fill: #ff0000 } .shp3 { fill: #000000 } .shp4 { fill: #e6e6e6 } .txt5 { font-size: 19px;fill: #101010;font-family: "Rubik";font-weight: 800 } </style><g id="Layer"><g id="Layer"><path id="Layer" class="shp0" d="M98.13 15.01L123.34 15.01C124.72 15.01 125.83 16.12 125.83 17.49L125.83 25.04C125.83 26.41 124.72 27.52 123.34 27.52L98.13 27.52C96.76 27.52 95.65 26.41 95.65 25.04L95.65 17.49C95.65 16.12 96.76 15.01 98.13 15.01Z"></path></g><g id="Layer"><path id="Layer" class="shp1" d="M117.24 15.01L123.35 15.01C124.72 15.01 125.83 16.12 125.83 17.49L125.83 25.04C125.83 26.41 124.72 27.52 123.35 27.52L117.24 27.52C115.87 27.52 114.76 26.41 114.76 25.04L114.76 17.49C114.76 16.12 115.87 15.01 117.24 15.01Z"></path></g><g id="Layer"><path id="Layer" fill-rule="evenodd" class="shp2" d="M110.74 37.64C119.36 37.64 127.89 39.34 135.85 42.63C143.81 45.93 151.05 50.77 157.14 56.86C163.23 62.95 168.07 70.19 171.37 78.15C174.66 86.11 176.36 94.64 176.36 103.26C176.36 129.8 160.37 153.73 135.85 163.89C111.33 174.04 83.11 168.43 64.34 149.66C45.57 130.9 39.96 102.67 50.11 78.15C60.27 53.63 84.2 37.64 110.74 37.64ZM110.74 155.91C117.65 155.91 124.5 154.55 130.89 151.9C137.28 149.26 143.08 145.38 147.97 140.49C152.86 135.6 156.74 129.8 159.38 123.41C162.03 117.02 163.39 110.17 163.39 103.26C163.39 81.97 150.56 62.77 130.89 54.62C111.21 46.47 88.57 50.98 73.51 66.03C58.45 81.09 53.95 103.73 62.1 123.41C70.25 143.08 89.44 155.91 110.74 155.91Z"></path></g><g id="Layer"><path id="Layer" fill-rule="evenodd" class="shp3" d="M47.23 129.57C36.59 103.88 42.48 74.31 62.14 54.65C81.79 35 111.36 29.11 137.05 39.75C162.73 50.39 179.48 75.46 179.48 103.26C179.47 112.29 177.68 121.22 174.23 129.55C170.77 137.89 165.7 145.46 159.32 151.84C152.94 158.23 145.37 163.29 137.03 166.75C128.7 170.21 119.76 171.99 110.74 172C82.94 172 57.87 155.25 47.23 129.57ZM52.79 79.26C43.08 102.7 48.45 129.67 66.39 147.61C84.33 165.55 111.31 170.92 134.74 161.21C158.18 151.5 173.46 128.63 173.46 103.26C173.46 95.03 171.83 86.88 168.67 79.27C165.51 71.66 160.89 64.75 155.07 58.93C149.25 53.11 142.34 48.49 134.73 45.33C127.13 42.18 118.97 40.55 110.74 40.54C85.37 40.54 62.5 55.82 52.79 79.26Z"></path></g><g id="Layer"><path id="Layer" fill-rule="evenodd" class="shp3" d="M105.2 40.54C104.8 40.54 104.41 40.46 104.05 40.31C103.68 40.16 103.35 39.93 103.07 39.65C102.79 39.38 102.57 39.04 102.42 38.68C102.27 38.31 102.19 37.92 102.19 37.53L102.19 27.52C102.19 27.12 102.27 26.73 102.42 26.37C102.57 26 102.79 25.67 103.07 25.39C103.35 25.11 103.68 24.89 104.05 24.74C104.41 24.59 104.8 24.51 105.2 24.51L116.28 24.51C116.68 24.51 117.07 24.59 117.43 24.74C117.8 24.89 118.13 25.11 118.41 25.39C118.69 25.67 118.91 26 119.06 26.37C119.21 26.73 119.29 27.12 119.29 27.52L119.29 37.53C119.29 37.92 119.21 38.31 119.06 38.68C118.91 39.04 118.69 39.38 118.41 39.66C118.13 39.93 117.8 40.16 117.43 40.31C117.07 40.46 116.68 40.54 116.28 40.54L105.2 40.54ZM108.2 34.52L113.27 34.52L113.27 30.53L108.2 30.53L108.2 34.52Z"></path></g><g id="Layer"><path id="Layer" fill-rule="evenodd" class="shp3" d="M98.64 30.53C97.86 30.53 97.08 30.37 96.35 30.07C95.62 29.77 94.96 29.33 94.41 28.77C93.85 28.21 93.41 27.55 93.11 26.83C92.81 26.1 92.65 25.32 92.65 24.54L92.65 17.99C92.65 17.21 92.81 16.43 93.11 15.7C93.41 14.97 93.85 14.31 94.41 13.76C94.96 13.2 95.62 12.76 96.35 12.46C97.08 12.16 97.86 12 98.64 12L122.84 12C123.63 12 124.41 12.16 125.13 12.46C125.86 12.76 126.52 13.2 127.08 13.76C127.63 14.31 128.07 14.97 128.38 15.7C128.68 16.43 128.83 17.21 128.83 17.99L128.83 24.53C128.83 25.32 128.68 26.1 128.38 26.83C128.07 27.55 127.63 28.21 127.08 28.77C126.52 29.33 125.86 29.77 125.13 30.07C124.41 30.37 123.63 30.53 122.84 30.53L98.64 30.53ZM122.82 17.99L98.64 18.02L98.66 24.54L122.84 24.51L122.82 17.99Z"></path></g><g id="Layer"><path id="Layer" class="shp4" d="M162.56 42.83L165.42 45.41C165.78 45.72 166.06 46.11 166.27 46.54C166.47 46.96 166.59 47.43 166.61 47.9C166.64 48.38 166.57 48.85 166.41 49.3C166.25 49.75 166.01 50.16 165.69 50.51L158.84 58.12L150.61 50.7L157.45 43.1C157.77 42.74 158.16 42.46 158.58 42.25C159.01 42.05 159.48 41.93 159.95 41.91C160.43 41.88 160.9 41.95 161.35 42.11C161.8 42.27 162.21 42.51 162.56 42.83L162.56 42.83Z"></path><path id="Layer" fill-rule="evenodd" class="shp3" d="M158.84 61.13C158.66 61.13 158.47 61.11 158.29 61.08C158.11 61.04 157.93 60.99 157.76 60.93C157.59 60.86 157.43 60.78 157.27 60.69C157.11 60.59 156.97 60.48 156.83 60.36L148.59 52.94C148.3 52.67 148.06 52.36 147.89 52C147.72 51.64 147.62 51.26 147.6 50.86C147.58 50.47 147.64 50.07 147.77 49.7C147.9 49.33 148.11 48.98 148.37 48.69L154.73 41.63C155.37 40.91 156.16 40.33 157.03 39.91C157.9 39.5 158.85 39.26 159.81 39.21C160.78 39.16 161.74 39.3 162.65 39.62C163.56 39.94 164.4 40.44 165.12 41.09L166.89 42.68C167.61 43.33 168.19 44.11 168.61 44.98C169.02 45.85 169.26 46.8 169.31 47.76C169.36 48.73 169.22 49.69 168.9 50.6C168.58 51.52 168.08 52.35 167.43 53.07L161.08 60.13C160.94 60.29 160.78 60.43 160.61 60.55C160.44 60.68 160.26 60.78 160.07 60.87C159.87 60.95 159.67 61.02 159.47 61.06C159.26 61.11 159.05 61.13 158.84 61.13ZM154.85 50.48L158.62 53.87L162.96 49.05C163.08 48.92 163.17 48.76 163.23 48.6C163.29 48.43 163.32 48.25 163.31 48.08C163.3 47.9 163.25 47.73 163.18 47.57C163.1 47.41 163 47.27 162.86 47.15L161.09 45.55C161.03 45.5 160.96 45.44 160.88 45.4C160.81 45.35 160.73 45.32 160.64 45.29C160.56 45.26 160.47 45.24 160.39 45.22C160.3 45.21 160.21 45.21 160.12 45.21C160.04 45.21 159.95 45.23 159.86 45.25C159.78 45.27 159.7 45.3 159.62 45.34C159.54 45.38 159.46 45.42 159.39 45.48C159.32 45.53 159.26 45.59 159.2 45.65L154.85 50.48Z"></path></g><g id="Layer"><path id="Layer" class="shp3" d="M110.74 158.92C103.43 158.91 96.2 157.46 89.45 154.66C82.7 151.86 76.57 147.76 71.4 142.6C66.24 137.43 62.14 131.3 59.34 124.55C56.54 117.8 55.09 110.57 55.08 103.26C55.08 102.65 55.09 102.05 55.11 101.44C55.13 100.83 55.16 100.23 55.2 99.62C55.24 99.02 55.29 98.41 55.35 97.81C55.41 97.2 55.47 96.6 55.55 96C55.66 95.21 56.07 94.49 56.7 94C57.33 93.52 58.13 93.3 58.92 93.4C59.71 93.51 60.43 93.92 60.92 94.55C61.4 95.18 61.62 95.98 61.52 96.77C61.45 97.31 61.39 97.85 61.33 98.39C61.28 98.93 61.24 99.47 61.2 100.01C61.17 100.55 61.14 101.09 61.12 101.63C61.11 102.18 61.1 102.72 61.1 103.26C61.1 127.31 78.34 147.89 102.01 152.11C125.68 156.33 148.98 142.98 157.29 120.42C165.61 97.85 156.56 72.58 135.81 60.43C115.06 48.28 88.58 52.75 72.98 71.04C72.25 71.89 71.55 72.77 70.88 73.66C70.4 74.29 69.69 74.7 68.91 74.81C68.13 74.92 67.33 74.72 66.7 74.24C66.07 73.77 65.64 73.07 65.52 72.29C65.4 71.51 65.59 70.71 66.06 70.07C66.8 69.07 67.59 68.08 68.4 67.13C68.8 66.66 69.21 66.2 69.62 65.75C70.04 65.29 70.46 64.84 70.89 64.4C71.32 63.96 71.76 63.53 72.2 63.1C72.65 62.68 73.1 62.26 73.56 61.84C87.19 49.6 105.98 44.86 123.79 49.15C141.6 53.45 156.16 66.24 162.71 83.35C169.27 100.46 166.98 119.7 156.6 134.8C146.21 149.9 129.06 158.92 110.74 158.92L110.74 158.92Z"></path><g id="Layer"><path id="Layer" class="shp3" d="M61.97 86.39C61.48 86.39 61 86.27 60.56 86.03C60.13 85.8 59.75 85.47 59.48 85.06C59.2 84.65 59.03 84.18 58.98 83.69C58.93 83.2 59 82.7 59.19 82.24C59.85 80.62 60.6 79.01 61.41 77.46C61.79 76.76 62.42 76.24 63.18 76C63.94 75.77 64.76 75.85 65.46 76.22C66.16 76.58 66.69 77.21 66.93 77.97C67.17 78.73 67.1 79.54 66.74 80.25C66.02 81.63 65.35 83.07 64.76 84.52C64.65 84.79 64.49 85.05 64.31 85.28C64.12 85.51 63.9 85.71 63.65 85.88C63.4 86.04 63.14 86.17 62.85 86.26C62.57 86.34 62.27 86.39 61.97 86.39L61.97 86.39Z"></path></g></g><g id="Layer"><path id="Layer" class="shp3" d="M110.74 67.49C110.34 67.49 109.95 67.41 109.59 67.26C109.22 67.11 108.89 66.89 108.61 66.61C108.33 66.33 108.11 66 107.96 65.64C107.81 65.27 107.73 64.88 107.73 64.48L107.73 60.88C107.72 60.07 108.03 59.29 108.59 58.71C109.16 58.14 109.93 57.81 110.74 57.81C111.55 57.81 112.32 58.14 112.89 58.71C113.45 59.29 113.76 60.07 113.75 60.88L113.75 64.49C113.75 64.88 113.67 65.27 113.52 65.64C113.37 66 113.15 66.33 112.87 66.61C112.59 66.89 112.26 67.11 111.89 67.26C111.53 67.41 111.13 67.49 110.74 67.49L110.74 67.49Z"></path></g><g id="Layer"><path id="Layer" class="shp3" d="M83.32 78.85C83.12 78.85 82.93 78.83 82.73 78.79C82.54 78.75 82.35 78.7 82.17 78.62C81.99 78.55 81.81 78.45 81.65 78.34C81.49 78.23 81.33 78.11 81.19 77.97L78.64 75.42C78.06 74.86 77.73 74.09 77.73 73.28C77.72 72.48 78.04 71.7 78.61 71.13C79.18 70.56 79.95 70.25 80.76 70.25C81.56 70.26 82.33 70.59 82.89 71.16L85.45 73.71C85.87 74.14 86.15 74.67 86.27 75.26C86.39 75.84 86.33 76.44 86.1 76.99C85.87 77.54 85.49 78.01 84.99 78.34C84.5 78.67 83.91 78.85 83.32 78.85Z"></path></g><g id="Layer"><path id="Layer" class="shp3" d="M71.96 106.27L68.36 106.27C67.57 106.25 66.82 105.93 66.26 105.37C65.71 104.81 65.4 104.05 65.4 103.26C65.4 102.47 65.71 101.72 66.26 101.15C66.82 100.59 67.57 100.27 68.36 100.25L71.96 100.25C72.77 100.24 73.55 100.55 74.13 101.12C74.7 101.68 75.03 102.45 75.03 103.26C75.03 104.07 74.7 104.84 74.13 105.41C73.55 105.97 72.77 106.28 71.96 106.27Z"></path></g><g id="Layer"><path id="Layer" class="shp3" d="M80.77 136.24C80.17 136.24 79.59 136.06 79.1 135.73C78.6 135.4 78.22 134.93 77.99 134.38C77.76 133.83 77.7 133.23 77.82 132.65C77.94 132.06 78.22 131.53 78.64 131.11L81.2 128.55C81.76 127.99 82.52 127.67 83.32 127.67C84.12 127.67 84.88 127.99 85.45 128.55C86.01 129.12 86.33 129.88 86.33 130.68C86.33 131.48 86.01 132.24 85.45 132.81L82.9 135.36C82.76 135.5 82.6 135.62 82.44 135.73C82.28 135.84 82.1 135.94 81.92 136.01C81.74 136.09 81.55 136.14 81.36 136.18C81.16 136.22 80.97 136.24 80.77 136.24L80.77 136.24Z"></path></g><g id="Layer"><path id="Layer" class="shp3" d="M110.74 148.65C110.34 148.65 109.95 148.58 109.59 148.42C109.22 148.27 108.89 148.05 108.61 147.77C108.33 147.49 108.11 147.16 107.96 146.8C107.81 146.43 107.73 146.04 107.73 145.65L107.73 142.04C107.72 141.23 108.03 140.45 108.59 139.87C109.16 139.3 109.93 138.97 110.74 138.97C111.55 138.97 112.32 139.3 112.89 139.87C113.45 140.45 113.76 141.23 113.75 142.04L113.75 145.64C113.75 146.04 113.67 146.43 113.52 146.8C113.37 147.16 113.15 147.49 112.87 147.77C112.59 148.05 112.26 148.27 111.89 148.42C111.53 148.58 111.13 148.65 110.74 148.65L110.74 148.65Z"></path></g><g id="Layer"><path id="Layer" class="shp3" d="M140.71 136.24C140.51 136.24 140.32 136.22 140.12 136.18C139.93 136.14 139.74 136.09 139.56 136.01C139.38 135.94 139.2 135.84 139.04 135.73C138.88 135.62 138.72 135.5 138.58 135.36L136.03 132.81C135.48 132.24 135.18 131.48 135.18 130.69C135.19 129.9 135.5 129.14 136.06 128.58C136.62 128.02 137.38 127.71 138.17 127.7C138.96 127.7 139.72 128 140.29 128.55L142.84 131.1C143.26 131.53 143.54 132.06 143.66 132.64C143.77 133.23 143.71 133.83 143.49 134.38C143.26 134.93 142.87 135.4 142.38 135.73C141.89 136.06 141.3 136.24 140.71 136.24L140.71 136.24Z"></path></g><g id="Layer"><path id="Layer" class="shp3" d="M153.12 106.27L149.52 106.27C148.73 106.25 147.98 105.93 147.43 105.37C146.88 104.81 146.57 104.05 146.57 103.26C146.57 102.47 146.88 101.72 147.43 101.15C147.98 100.59 148.73 100.27 149.52 100.25L153.12 100.25C153.93 100.24 154.71 100.55 155.28 101.12C155.86 101.68 156.18 102.45 156.18 103.26C156.18 104.07 155.86 104.84 155.28 105.41C154.71 105.97 153.93 106.28 153.12 106.27Z"></path></g><g id="Layer"><path id="Layer" class="shp3" d="M138.16 78.85C137.56 78.85 136.98 78.67 136.49 78.34C135.99 78.01 135.61 77.54 135.38 76.99C135.15 76.44 135.09 75.84 135.21 75.26C135.33 74.67 135.61 74.14 136.03 73.72L138.58 71.16C139.15 70.6 139.91 70.28 140.71 70.28C141.51 70.28 142.27 70.6 142.84 71.16C143.4 71.73 143.72 72.49 143.72 73.29C143.72 74.09 143.4 74.85 142.84 75.42L140.29 77.97C140.15 78.11 140 78.23 139.83 78.34C139.67 78.45 139.49 78.55 139.31 78.62C139.13 78.7 138.94 78.75 138.75 78.79C138.55 78.83 138.36 78.85 138.16 78.85Z"></path></g><g id="Layer"><text id="24" style="transform: matrix(1,0,0,1,98.33,95)"><tspan x="0" y="0" class="txt5">24</tspan></text><text id="Hours" style="transform: matrix(1,0,0,1,81.638,117)"><tspan x="0" y="0" class="txt5">Hours</tspan></text></g></g></svg> 